<?xml version="1.0" standalone="no"?><!DOCTYPE svg PUBLIC "-//W3C//DTD SVG 1.1//EN" "http://www.w3.org/Graphics/SVG/1.1/DTD/svg11.dtd"><svg t="1575182079262" class="icon" viewBox="0 0 1024 1024" version="1.1" xmlns="http://www.w3.org/2000/svg" p-id="1719" xmlns:xlink="http://www.w3.org/1999/xlink" width="200" height="200"><defs><style type="text/css"></style></defs><path d="M338.94335937 62H200.42773437C124.31445312 62 62 124.31445312 62 200.42773437V338.85546875c0 76.11328125 62.31445313 138.42773438 138.42773438 138.42773438H338.85546875c76.11328125 0 138.42773438-62.31445313 138.42773438-138.42773438V200.42773437C477.37109375 124.31445312 415.05664062 62 338.94335937 62z m484.62890626 0H685.05664063c-76.11328125 0-138.42773438 62.31445313-138.42773438 138.42773438V338.85546875c0 76.11328125 62.31445313 138.42773438 138.42773438 138.42773438h138.42773437c76.11328125 0 138.42773438-62.31445313 138.42773438-138.42773438V200.42773437C962 124.31445312 899.68554688 62 823.57226563 62zM338.94335937 546.62890625H200.42773437C124.31445312 546.62890625 62 608.94335938 62 685.05664063v138.42773437C62 899.68554688 124.31445312 962 200.42773437 962H338.85546875c76.11328125 0 138.42773438-62.31445313 138.42773438-138.42773438V685.05664063c0.08789063-76.11328125-62.2265625-138.42773438-138.33984376-138.42773438z m484.62890626 0H685.05664063c-76.11328125 0-138.42773438 62.31445313-138.42773438 138.42773438v138.42773437c0 76.11328125 62.31445313 138.42773438 138.42773438 138.42773438h138.42773437c76.11328125 0 138.42773438-62.31445313 138.42773438-138.42773438V685.05664063c0.08789063-76.11328125-62.2265625-138.42773438-138.33984376-138.42773438z" fill="#cdcdcd" p-id="1720"></path></svg>